<svg xmlns="http://www.w3.org/2000/svg">
  <symbol fill="none" viewBox="0 0 24 24" id="lock">
    <path d="M6.45492 21.7553L6.68668 21.042L6.45492 21.7553ZM3.24472 18.5451L3.95801 18.3133L3.24472 18.5451ZM20.7553 18.5451L20.042 18.3133L20.7553 18.5451ZM17.5451 21.7553L17.3133 21.042L17.5451 21.7553ZM17.5451 8.24472L17.3133 8.95801L17.5451 8.24472ZM20.7553 11.4549L20.042 11.6867L20.7553 11.4549ZM6.45492 8.24472L6.68668 8.95801L6.45492 8.24472ZM3.24472 11.4549L3.95801 11.6867L3.24472 11.4549ZM11.25 19C11.25 19.4142 11.5858 19.75 12 19.75C12.4142 19.75 12.75 19.4142 12.75 19H11.25ZM10 8.75H14V7.25H10V8.75ZM14 21.25H10V22.75H14V21.25ZM10 21.25C8.08034 21.25 7.29839 21.2407 6.68668 21.042L6.22315 22.4686C7.11777 22.7593 8.19709 22.75 10 22.75V21.25ZM2.25 15C2.25 16.8029 2.24075 17.8822 2.53142 18.7768L3.95801 18.3133C3.75925 17.7016 3.75 16.9197 3.75 15H2.25ZM6.68668 21.042C5.39282 20.6216 4.37841 19.6072 3.95801 18.3133L2.53142 18.7768C3.1002 20.5274 4.47263 21.8998 6.22315 22.4686L6.68668 21.042ZM20.25 15C20.25 16.9197 20.2407 17.7016 20.042 18.3133L21.4686 18.7768C21.7593 17.8822 21.75 16.8029 21.75 15H20.25ZM14 22.75C15.8029 22.75 16.8822 22.7593 17.7768 22.4686L17.3133 21.042C16.7016 21.2407 15.9197 21.25 14 21.25V22.75ZM20.042 18.3133C19.6216 19.6072 18.6072 20.6216 17.3133 21.042L17.7768 22.4686C19.5274 21.8998 20.8998 20.5274 21.4686 18.7768L20.042 18.3133ZM21.75 15C21.75 13.1971 21.7593 12.1178 21.4686 11.2232L20.042 11.6867C20.2407 12.2984 20.25 13.0803 20.25 15H21.75ZM17.3133 8.95801C18.6072 9.37841 19.6216 10.3928 20.042 11.6867L21.4686 11.2232C20.8998 9.47263 19.5274 8.1002 17.7768 7.53142L17.3133 8.95801ZM3.75 15C3.75 13.0803 3.75925 12.2984 3.95801 11.6867L2.53142 11.2232C2.24075 12.1178 2.25 13.1971 2.25 15H3.75ZM6.22315 7.53142C4.47263 8.1002 3.1002 9.47263 2.53142 11.2232L3.95801 11.6867C4.37841 10.3928 5.39282 9.37841 6.68668 8.95801L6.22315 7.53142ZM16.25 7V8H17.75V7H16.25ZM7.75 8V7H6.25V8H7.75ZM12 2.75C14.3472 2.75 16.25 4.65279 16.25 7H17.75C17.75 3.82436 15.1756 1.25 12 1.25V2.75ZM12 1.25C8.82436 1.25 6.25 3.82436 6.25 7H7.75C7.75 4.65279 9.65279 2.75 12 2.75V1.25ZM11.25 15V19H12.75V15H11.25ZM9.25 13C9.25 14.5188 10.4812 15.75 12 15.75V14.25C11.3096 14.25 10.75 13.6904 10.75 13H9.25ZM12 15.75C13.5188 15.75 14.75 14.5188 14.75 13H13.25C13.25 13.6904 12.6904 14.25 12 14.25V15.75ZM14.75 13C14.75 11.4812 13.5188 10.25 12 10.25V11.75C12.6904 11.75 13.25 12.3096 13.25 13H14.75ZM12 10.25C10.4812 10.25 9.25 11.4812 9.25 13H10.75C10.75 12.3096 11.3096 11.75 12 11.75V10.25ZM10 7.25C8.58853 7.25 7.6278 7.24738 6.8754 7.37414L7.1246 8.85329C7.7222 8.75262 8.52815 8.75 10 8.75V7.25ZM6.8754 7.37414C6.64772 7.4125 6.43257 7.46338 6.22315 7.53142L6.68668 8.95801C6.81685 8.91571 6.95935 8.88113 7.1246 8.85329L6.8754 7.37414ZM6.25 8V8.11372H7.75V8H6.25ZM14 8.75C15.4719 8.75 16.2778 8.75262 16.8754 8.85329L17.1246 7.37414C16.3722 7.24738 15.4115 7.25 14 7.25V8.75ZM16.8754 8.85329C17.0407 8.88113 17.1831 8.91571 17.3133 8.95801L17.7768 7.53142C17.5674 7.46338 17.3523 7.4125 17.1246 7.37414L16.8754 8.85329ZM16.25 8V8.11372H17.75V8H16.25Z" fill="currentColor"/>
  </symbol>
  <symbol fill="none" viewBox="0 0 24 24" id="unlock">
    <path d="M6.45492 21.7553L6.68668 21.042L6.45492 21.7553ZM3.24472 18.5451L3.95801 18.3133L3.24472 18.5451ZM20.7553 18.5451L20.042 18.3133L20.7553 18.5451ZM17.5451 21.7553L17.3133 21.042L17.5451 21.7553ZM17.5451 8.24472L17.3133 8.95801L17.5451 8.24472ZM20.7553 11.4549L20.042 11.6867L20.7553 11.4549ZM6.45492 8.24472L6.68668 8.95801L6.45492 8.24472ZM3.24472 11.4549L3.95801 11.6867L3.24472 11.4549ZM14.55 3.59962C14.8811 3.84843 15.3513 3.78167 15.6001 3.45051C15.8489 3.11935 15.7822 2.64919 15.451 2.40038L14.55 3.59962ZM11.25 19C11.25 19.4142 11.5858 19.75 12 19.75C12.4142 19.75 12.75 19.4142 12.75 19H11.25ZM10 8.75H14V7.25H10V8.75ZM14 21.25H10V22.75H14V21.25ZM10 21.25C8.08034 21.25 7.29839 21.2407 6.68668 21.042L6.22315 22.4686C7.11777 22.7593 8.19709 22.75 10 22.75V21.25ZM2.25 15C2.25 16.8029 2.24075 17.8822 2.53142 18.7768L3.95801 18.3133C3.75925 17.7016 3.75 16.9197 3.75 15H2.25ZM6.68668 21.042C5.39282 20.6216 4.37841 19.6072 3.95801 18.3133L2.53142 18.7768C3.1002 20.5274 4.47263 21.8998 6.22315 22.4686L6.68668 21.042ZM20.25 15C20.25 16.9197 20.2407 17.7016 20.042 18.3133L21.4686 18.7768C21.7593 17.8822 21.75 16.8029 21.75 15H20.25ZM14 22.75C15.8029 22.75 16.8822 22.7593 17.7768 22.4686L17.3133 21.042C16.7016 21.2407 15.9197 21.25 14 21.25V22.75ZM20.042 18.3133C19.6216 19.6072 18.6072 20.6216 17.3133 21.042L17.7768 22.4686C19.5274 21.8998 20.8998 20.5274 21.4686 18.7768L20.042 18.3133ZM14 8.75C15.9197 8.75 16.7016 8.75925 17.3133 8.95801L17.7768 7.53142C16.8822 7.24075 15.8029 7.25 14 7.25V8.75ZM21.75 15C21.75 13.1971 21.7593 12.1178 21.4686 11.2232L20.042 11.6867C20.2407 12.2984 20.25 13.0803 20.25 15H21.75ZM17.3133 8.95801C18.6072 9.37841 19.6216 10.3928 20.042 11.6867L21.4686 11.2232C20.8998 9.47263 19.5274 8.1002 17.7768 7.53142L17.3133 8.95801ZM3.75 15C3.75 13.0803 3.75925 12.2984 3.95801 11.6867L2.53142 11.2232C2.24075 12.1178 2.25 13.1971 2.25 15H3.75ZM6.22315 7.53142C4.47263 8.1002 3.1002 9.47263 2.53142 11.2232L3.95801 11.6867C4.37841 10.3928 5.39282 9.37841 6.68668 8.95801L6.22315 7.53142ZM12 1.25C8.82436 1.25 6.25 3.82436 6.25 7H7.75C7.75 4.65279 9.65279 2.75 12 2.75V1.25ZM12 2.75C12.9578 2.75 13.8397 3.06595 14.55 3.59962L15.451 2.40038C14.4898 1.67823 13.2938 1.25 12 1.25V2.75ZM10 7.25C8.58853 7.25 7.6278 7.24738 6.8754 7.37414L7.1246 8.85329C7.7222 8.75262 8.52815 8.75 10 8.75V7.25ZM6.8754 7.37414C6.64772 7.4125 6.43257 7.46338 6.22315 7.53142L6.68668 8.95801C6.81685 8.91571 6.95935 8.88113 7.1246 8.85329L6.8754 7.37414ZM7.75 8.11372V7H6.25V8.11372H7.75ZM11.25 15V19H12.75V15H11.25ZM9.25 13C9.25 14.5188 10.4812 15.75 12 15.75V14.25C11.3096 14.25 10.75 13.6904 10.75 13H9.25ZM12 15.75C13.5188 15.75 14.75 14.5188 14.75 13H13.25C13.25 13.6904 12.6904 14.25 12 14.25V15.75ZM14.75 13C14.75 11.4812 13.5188 10.25 12 10.25V11.75C12.6904 11.75 13.25 12.3096 13.25 13H14.75ZM12 10.25C10.4812 10.25 9.25 11.4812 9.25 13H10.75C10.75 12.3096 11.3096 11.75 12 11.75V10.25Z" fill="currentColor"/>
  </symbol>

  <symbol fill="none" viewBox="0 0 24 24" id="check">
    <svg width="24" height="24" viewBox="0 0 24 24" fill="none" xmlns="http://www.w3.org/2000/svg">
      <path d="M20 7L14.6093 13.4688C12.4732 16.0322 11.4051 17.3139 10 17.3139C8.59488 17.3139 7.52681 16.0322 5.39067 13.4688L4 11.8" stroke="currentColor" stroke-width="1.5" stroke-linecap="round"/>
    </svg>
  </symbol>

  <symbol fill="none" viewBox="0 0 24 24" id="load">
    <svg width="24" height="24" viewBox="0 0 24 24" fill="none" xmlns="http://www.w3.org/2000/svg">
      <path d="M2.75 12C2.75 11.5858 2.41421 11.25 2 11.25C1.58579 11.25 1.25 11.5858 1.25 12H2.75ZM21.25 12C21.25 12.4142 21.5858 12.75 22 12.75C22.4142 12.75 22.75 12.4142 22.75 12H21.25ZM4.40041 5.5L4.94041 6.02048L4.95576 6.00456L4.97015 5.98776L4.40041 5.5ZM19.5996 18.5L20.1693 18.9878L20.1786 18.9769L20.1874 18.9658L19.5996 18.5ZM4.01269 1.00335C4.01454 0.589137 3.68025 0.251855 3.26604 0.250007C2.85183 0.248159 2.51455 0.582444 2.5127 0.996654L4.01269 1.00335ZM3.25384 2.98571L2.50384 2.98237L3.25384 2.98571ZM6.93384 6.66571L6.93718 7.41571H6.93718L6.93384 6.66571ZM8.9229 7.40685C9.33711 7.405 9.67139 7.06772 9.66954 6.65351C9.66769 6.2393 9.33041 5.90501 8.9162 5.90686L8.9229 7.40685ZM3.66238 5.90267L3.06926 6.36169L3.06926 6.36169L3.66238 5.90267ZM4.01688 6.25717L3.55786 6.85029L3.55786 6.85029L4.01688 6.25717ZM19.9069 22.9162C19.905 23.3305 20.2393 23.6677 20.6535 23.6696C21.0677 23.6714 21.405 23.3371 21.4069 22.9229L19.9069 22.9162ZM20.6657 20.9339L21.4157 20.9372L20.6657 20.9339ZM16.9857 17.2539L16.9824 16.5039L16.9857 17.2539ZM14.9967 16.5127C14.5824 16.5146 14.2482 16.8519 14.25 17.2661C14.2519 17.6803 14.5891 18.0146 15.0034 18.0127L14.9967 16.5127ZM20.2572 18.0169L20.8503 17.5579V17.5579L20.2572 18.0169ZM19.9027 17.6624L20.3617 17.0693H20.3617L19.9027 17.6624ZM3.82952 6.0923L3.29962 6.62306L3.82952 6.0923ZM12 21.25C6.89137 21.25 2.75 17.1086 2.75 12H1.25C1.25 17.9371 6.06294 22.75 12 22.75V21.25ZM12 2.75C17.1086 2.75 21.25 6.89137 21.25 12H22.75C22.75 6.06294 17.9371 1.25 12 1.25V2.75ZM4.97015 5.98776C6.66782 4.00476 9.18698 2.75 12 2.75V1.25C8.73042 1.25 5.80117 2.71058 3.83068 5.01224L4.97015 5.98776ZM19.0299 18.0122C17.3322 19.9952 14.813 21.25 12 21.25V22.75C15.2696 22.75 18.1988 21.2894 20.1693 18.9878L19.0299 18.0122ZM2.5127 0.996654L2.50384 2.98237L4.00383 2.98906L4.01269 1.00335L2.5127 0.996654ZM6.93718 7.41571L8.9229 7.40685L8.9162 5.90686L6.93049 5.91572L6.93718 7.41571ZM2.50384 2.98237C2.50039 3.75651 2.49638 4.4005 2.55271 4.91635C2.61069 5.44728 2.74029 5.93661 3.06926 6.36169L4.25551 5.44365C4.16534 5.32713 4.08712 5.14976 4.04385 4.75351C3.99893 4.34217 4.00022 3.79848 4.00383 2.98906L2.50384 2.98237ZM6.93049 5.91572C6.12107 5.91933 5.57739 5.92062 5.16604 5.8757C4.76979 5.83243 4.59242 5.75421 4.4759 5.66404L3.55786 6.85029C3.98294 7.17926 4.47227 7.30886 5.0032 7.36684C5.51905 7.42317 6.16304 7.41916 6.93718 7.41571L6.93049 5.91572ZM21.4069 22.9229L21.4157 20.9372L19.9157 20.9305L19.9069 22.9162L21.4069 22.9229ZM16.9824 16.5039L14.9967 16.5127L15.0034 18.0127L16.9891 18.0039L16.9824 16.5039ZM21.4157 20.9372C21.4192 20.1631 21.4232 19.5191 21.3668 19.0032C21.3089 18.4723 21.1793 17.983 20.8503 17.5579L19.664 18.4759C19.7542 18.5925 19.8324 18.7698 19.8757 19.1661C19.9206 19.5774 19.9193 20.1211 19.9157 20.9305L21.4157 20.9372ZM16.9891 18.0039C17.7985 18.0003 18.3422 17.999 18.7535 18.0439C19.1498 18.0872 19.3271 18.1654 19.4437 18.2555L20.3617 17.0693C19.9366 16.7403 19.4473 16.6107 18.9164 16.5528C18.4005 16.4964 17.7565 16.5004 16.9824 16.5039L16.9891 18.0039ZM3.06926 6.36169C3.14048 6.45372 3.21743 6.54101 3.29962 6.62306L4.35942 5.56154C4.32235 5.52454 4.28764 5.48517 4.25551 5.44365L3.06926 6.36169ZM3.29962 6.62306C3.38076 6.70408 3.467 6.77998 3.55786 6.85029L4.4759 5.66404C4.43491 5.63231 4.39601 5.59808 4.35942 5.56154L3.29962 6.62306ZM3.86042 4.97952L3.28952 5.57182L4.36952 6.61279L4.94041 6.02048L3.86042 4.97952ZM20.8503 17.5579C20.7885 17.4781 20.7225 17.4019 20.6524 17.3295L19.5748 18.3729C19.6064 18.4056 19.6362 18.4399 19.664 18.4759L20.8503 17.5579ZM20.6524 17.3295C20.5619 17.2361 20.4648 17.1491 20.3617 17.0693L19.4437 18.2555C19.4902 18.2915 19.534 18.3308 19.5748 18.3729L20.6524 17.3295ZM20.1874 18.9658L20.7015 18.317L19.5258 17.3855L19.0117 18.0342L20.1874 18.9658Z" fill="currentColor"/>
    </svg>
  </symbol>
  <symbol fill="none" viewBox="0 0 24 24" id="close">
    <path d="M5 5L19 19M5.00003 19L12 12L19 5" stroke="currentColor" stroke-width="1.5" stroke-linecap="round"></path>
  </symbol>
</svg>